<svg xmlns="http://www.w3.org/2000/svg" viewBox="0 0 206.98 237.89"><g id="Layer_2" data-name="Layer 2"><g id="Layer_2-2" data-name="Layer 2"><path d="M174,135.23c-1.31,32.47-25.78,59-57.5,63.88a69.07,69.07,0,0,1-31.07-2.34,67.23,67.23,0,0,1-.25-128.45l.25-.08a69.07,69.07,0,0,1,31.07-2.34c.73.11,1.45.23,2.17.37A67.91,67.91,0,0,1,171,112.43H141.84A41.4,41.4,0,0,0,85.47,97.2a40.56,40.56,0,0,0,0,70.59,41.21,41.21,0,0,0,61.61-32.56Z" fill="#4e1233"/><path d="M116.54,93.1v78.79a41.53,41.53,0,0,1-31.07-4.1V97.2a41.53,41.53,0,0,1,31.07-4.1Z" fill="none"/><path d="M116.54,65.9V93.1a41.53,41.53,0,0,0-31.07,4.1v-29a69.07,69.07,0,0,1,31.07-2.34Z" fill="#ed1c24"/><path d="M106,173.24a40.9,40.9,0,0,0,10.5-1.35v27.22a69.07,69.07,0,0,1-31.07-2.34v-29A41.2,41.2,0,0,0,106,173.24Z" fill="#ed1c24"/><path d="M69.66,71.06S24.19,54.48,5.48,105l15.59-1.81,7.55,13S34.53,71.55,69.66,71.06Z" fill="#ed1c24"/><path d="M103.14,59.73s-6.32-23.16-31.68-25.6a14.4,14.4,0,0,0-13.81,6.8C55,45.38,55,51.45,65.79,57.59a43.87,43.87,0,0,0,21.29,5.55c10.68.07,28.17-1.08,41.17-8.33,9.47-5.28,21-5.67,30.6-4.62a61.65,61.65,0,0,1,32,13.3,63.83,63.83,0,0,1,5.9,5.69l-19.42,1.06-.66,18.05s-23.47-28.23-61.39-21.5c-29.75,5.28-52.83-2-61.39-5.34a18.23,18.23,0,0,1-9.56-8.32c-1.9-3.6-3-8.58-.62-14.85a26.94,26.94,0,0,1,22-17.16C75.5,20,88.8,23.12,99.36,43c0,0,.33-38.73,27.41-42.67,13.55-2,19,5.54,21.16,13.54,2.87,10.87-.62,22.37-8.36,30.52a31.32,31.32,0,0,1-11.15,7.8S147.29,34,139.25,18.7,105.49,17,103.14,59.73Z" fill="#ed1c24"/><polygon points="96.86 227.19 94.84 227.19 95.85 230.17 96.86 227.19" fill="#282828"/><path d="M20.8,226.37H17.55a7,7,0,0,1-.15.82h3.29C20.73,226.92,20.77,226.65,20.8,226.37Z" fill="#fff"/><path d="M3.82,226.14a15.39,15.39,0,0,1,0-8.19,8.48,8.48,0,0,1,1.55-3,6.81,6.81,0,0,1,2.47-1.87,8.06,8.06,0,0,1,3.3-.65,8.58,8.58,0,0,1,2.5.35,5.77,5.77,0,0,1,1.95,1,4.88,4.88,0,0,1,1.32,1.54,5.66,5.66,0,0,1,.65,2H20.8a7.79,7.79,0,0,0-1-3.1,8.16,8.16,0,0,0-2.1-2.4,9.73,9.73,0,0,0-3-1.54,11.51,11.51,0,0,0-3.61-.55,11.71,11.71,0,0,0-4.6.86A9.79,9.79,0,0,0,3,213a11.28,11.28,0,0,0-2.23,3.88,17.13,17.13,0,0,0,0,10.22l0,.06H4.22A10,10,0,0,1,3.82,226.14Z" fill="#ed1c24"/><path d="M6.51,233.48a11.71,11.71,0,0,0,4.6.87,12.56,12.56,0,0,0,3.64-.52,9.29,9.29,0,0,0,3-1.53,8,8,0,0,0,2.08-2.5,8.63,8.63,0,0,0,.87-2.61H17.4a5.36,5.36,0,0,1-1.74,3.08,7,7,0,0,1-4.6,1.38A8,8,0,0,1,7.82,231a6.52,6.52,0,0,1-2.44-1.86,8.45,8.45,0,0,1-1.16-2H.81A11.13,11.13,0,0,0,3,231,9.69,9.69,0,0,0,6.51,233.48Z" fill="#4e1233"/><path d="M27.84,221.73a4.89,4.89,0,0,1,4-2.45,7.53,7.53,0,0,1,1.89.2v-3a4.78,4.78,0,0,0-.72-.1c-.22,0-.45,0-.68,0-1.76,0-3.25.94-4.49,2.8v-2.44H24.77v10.52h3.07Z" fill="#ed1c24"/><rect x="24.77" y="227.19" width="3.08" height="6.75" fill="#4e1233"/><path d="M38,226.06H51v-.74a11.72,11.72,0,0,0-.57-3.8,7.94,7.94,0,0,0-1.63-2.83,6.83,6.83,0,0,0-2.55-1.76,8.8,8.8,0,0,0-3.35-.62,8.37,8.37,0,0,0-3.25.62,7,7,0,0,0-2.55,1.76,8.13,8.13,0,0,0-1.65,2.83,11.18,11.18,0,0,0-.6,3.8,13.84,13.84,0,0,0,.13,1.87h3.19A9.61,9.61,0,0,1,38,226.06Zm.71-4.64a5.06,5.06,0,0,1,1.06-1.54,4,4,0,0,1,1.43-.91,5,5,0,0,1,1.69-.29,4.48,4.48,0,0,1,3.24,1.22,6.41,6.41,0,0,1,1.63,3.74H38.06A8.21,8.21,0,0,1,38.68,221.42Z" fill="#ed1c24"/><path d="M37.13,232a7.39,7.39,0,0,0,2.66,1.75,9.22,9.22,0,0,0,3.43.61,9.81,9.81,0,0,0,2.71-.36,7.31,7.31,0,0,0,2.25-1.07,6,6,0,0,0,1.63-1.74,6.1,6.1,0,0,0,.82-2.4H47.49a2.71,2.71,0,0,1-.43,1.37,3.39,3.39,0,0,1-1,1,4.51,4.51,0,0,1-1.34.59,6,6,0,0,1-1.52.19,5.72,5.72,0,0,1-2-.33,4.39,4.39,0,0,1-1.61-1.06,5.37,5.37,0,0,1-1.13-1.82,8.74,8.74,0,0,1-.39-1.51H34.94a10,10,0,0,0,.48,2A7.72,7.72,0,0,0,37.13,232Z" fill="#4e1233"/><path d="M63.27,225.57h2.08v1.62h3v-4.41a9.15,9.15,0,0,0-.47-3.23,4.29,4.29,0,0,0-1.38-2,5.21,5.21,0,0,0-2.21-1,14.53,14.53,0,0,0-2.94-.28q-7.08,0-7.45,5.31h3c.1-2,1.51-2.94,4.26-2.94a7.62,7.62,0,0,1,2.28.27,2.34,2.34,0,0,1,1.23.84,3.08,3.08,0,0,1,.51,1.44,17.68,17.68,0,0,1,.1,2.07h-1.5c-5.58,0-8.91,1.3-10,3.89h3.55C58.37,226.12,60.32,225.57,63.27,225.57Z" fill="#ed1c24"/><path d="M53.85,231.4A4.39,4.39,0,0,0,55.08,233,5.67,5.67,0,0,0,57,234a7.38,7.38,0,0,0,2.35.36,8.43,8.43,0,0,0,6-2.18v1.77h3v-6.75h-3v2.21a4.67,4.67,0,0,1-1,1.07,6.79,6.79,0,0,1-1.26.78,6.24,6.24,0,0,1-1.39.5,6.71,6.71,0,0,1-1.48.16,4.65,4.65,0,0,1-2.66-.66,2.3,2.3,0,0,1-.95-2,2.88,2.88,0,0,1,.78-2H53.83a5.35,5.35,0,0,0-.42,2.17A4.69,4.69,0,0,0,53.85,231.4Z" fill="#4e1233"/><polygon points="76.43 219.11 79.24 219.11 79.24 216.67 76.43 216.67 76.43 212.42 73.39 212.42 73.39 216.67 71.25 216.67 71.25 219.11 73.39 219.11 73.39 227.19 76.43 227.19 76.43 219.11" fill="#ed1c24"/><path d="M73.48,231.1a3.81,3.81,0,0,0,.49,1.66,2.56,2.56,0,0,0,1.21,1.05,5.87,5.87,0,0,0,2.26.35c.41,0,.79,0,1.15,0a6.17,6.17,0,0,0,1.06-.17v-2.3a6.77,6.77,0,0,1-.76.08c-.25,0-.5,0-.78,0a2.53,2.53,0,0,1-.7-.09,1,1,0,0,1-.53-.38,2.08,2.08,0,0,1-.34-.83,7.75,7.75,0,0,1-.11-1.43v-1.84h-3v1.7C73.39,229.71,73.42,230.45,73.48,231.1Z" fill="#4e1233"/><rect x="82.19" y="216.67" width="3.08" height="10.52" fill="#ed1c24"/><rect x="82.19" y="210.13" width="3.08" height="3.3" fill="#ed1c24"/><rect x="82.19" y="227.19" width="3.08" height="6.75" fill="#4e1233"/><polygon points="103.71 216.67 100.42 216.67 96.86 227.19 99.73 227.19 103.71 216.67" fill="#ed1c24"/><polygon points="91.28 216.67 87.97 216.67 91.92 227.19 94.84 227.19 91.28 216.67" fill="#ed1c24"/><polygon points="97.18 233.94 99.73 227.19 96.86 227.19 95.85 230.17 94.84 227.19 91.92 227.19 94.45 233.94 97.18 233.94" fill="#4e1233"/><path d="M108.51,226.06h13v-.74a11.72,11.72,0,0,0-.57-3.8,8.09,8.09,0,0,0-1.63-2.83,6.78,6.78,0,0,0-2.56-1.76,8.72,8.72,0,0,0-3.34-.62,8.45,8.45,0,0,0-3.26.62,7,7,0,0,0-2.54,1.76,8.13,8.13,0,0,0-1.65,2.83,11.18,11.18,0,0,0-.6,3.8,13.84,13.84,0,0,0,.13,1.87h3.18C108.61,226.83,108.55,226.46,108.51,226.06Zm.72-4.64a5.06,5.06,0,0,1,1.06-1.54,4,4,0,0,1,1.43-.91,5,5,0,0,1,1.69-.29,4.44,4.44,0,0,1,3.23,1.22,6.35,6.35,0,0,1,1.64,3.74h-9.67A7.87,7.87,0,0,1,109.23,221.42Z" fill="#ed1c24"/><path d="M107.68,232a7.3,7.3,0,0,0,2.66,1.75,9.22,9.22,0,0,0,3.43.61,9.86,9.86,0,0,0,2.71-.36,7.31,7.31,0,0,0,2.25-1.07,6,6,0,0,0,1.63-1.74,6.26,6.26,0,0,0,.82-2.4H118a2.71,2.71,0,0,1-.43,1.37,3.39,3.39,0,0,1-1,1,4.63,4.63,0,0,1-1.34.59,6,6,0,0,1-1.52.19,5.72,5.72,0,0,1-2-.33,4.39,4.39,0,0,1-1.61-1.06,5.37,5.37,0,0,1-1.13-1.82,8.73,8.73,0,0,1-.4-1.51h-3.18a10.71,10.71,0,0,0,.47,2A7.88,7.88,0,0,0,107.68,232Z" fill="#4e1233"/><path d="M147.64,226.84a6.62,6.62,0,0,0-1.45-1.25,8.38,8.38,0,0,0-1.67-.83c-.63-.21-1.36-.43-2.19-.65s-1.79-.47-2.88-.72-2-.47-2.73-.7a6.57,6.57,0,0,1-1.69-.77,2.27,2.27,0,0,1-.86-.95,3.39,3.39,0,0,1-.23-1.3,3.05,3.05,0,0,1,1.43-2.62,7.15,7.15,0,0,1,4.14-1q5.43,0,5.87,4.36h3.08a6.75,6.75,0,0,0-.73-3,6.67,6.67,0,0,0-1.87-2.25,8.42,8.42,0,0,0-2.85-1.39,13.08,13.08,0,0,0-3.64-.48,11.6,11.6,0,0,0-3.5.5,8.34,8.34,0,0,0-2.68,1.36,6,6,0,0,0-1.7,2.1,5.92,5.92,0,0,0-.6,2.65,6.37,6.37,0,0,0,.4,2.3,4.79,4.79,0,0,0,1.31,1.8,8.81,8.81,0,0,0,2.37,1.38,19.83,19.83,0,0,0,3.55,1c1.35.29,2.49.56,3.43.83h5.94C147.81,227.08,147.73,227,147.64,226.84Z" fill="#ed1c24"/><path d="M144.31,228.13a3.44,3.44,0,0,1,1.27,1.2A3.23,3.23,0,0,1,146,231a3.35,3.35,0,0,1-.44,1.71,3.92,3.92,0,0,1-1.22,1.28,6.06,6.06,0,0,1-1.86.78,9.76,9.76,0,0,1-2.37.27,10.61,10.61,0,0,1-2.64-.32,6.59,6.59,0,0,1-2.17-.95,5,5,0,0,1-1.51-1.62,5.49,5.49,0,0,1-.68-2.34h-3a8.79,8.79,0,0,0,.68,3.23,6.84,6.84,0,0,0,1.88,2.56,8.94,8.94,0,0,0,3.15,1.69,14.91,14.91,0,0,0,4.46.6,11.26,11.26,0,0,0,3.56-.54,8.85,8.85,0,0,0,2.79-1.49,6.68,6.68,0,0,0,1.82-2.25,6.23,6.23,0,0,0,.65-2.86,6.14,6.14,0,0,0-.38-2.19,5.74,5.74,0,0,0-.78-1.37H142l.06,0A10.05,10.05,0,0,1,144.31,228.13Z" fill="#4e1233"/><polygon points="156.49 222.65 159.3 222.65 159.3 220.22 156.49 220.22 156.49 215.97 153.45 215.97 153.45 220.22 151.31 220.22 151.31 222.65 153.45 222.65 153.45 227.19 156.49 227.19 156.49 222.65" fill="#ed1c24"/><path d="M153.53,234.65a4,4,0,0,0,.5,1.66,2.49,2.49,0,0,0,1.21,1,5.63,5.63,0,0,0,2.26.36c.4,0,.79,0,1.15,0a6.33,6.33,0,0,0,1.06-.17v-2.31a7.12,7.12,0,0,1-.76.09c-.25,0-.51,0-.78,0a2.54,2.54,0,0,1-.7-.08,1.08,1.08,0,0,1-.53-.38,1.94,1.94,0,0,1-.34-.83,7.79,7.79,0,0,1-.11-1.44v-5.38h-3v5.24C153.45,233.26,153.48,234,153.53,234.65Z" fill="#4e1233"/><path d="M164.66,226a6.17,6.17,0,0,1,1-2.09,4.26,4.26,0,0,1,1.56-1.28,4.56,4.56,0,0,1,2-.43,4.7,4.7,0,0,1,2,.42,4.06,4.06,0,0,1,1.56,1.24,5.89,5.89,0,0,1,1,2.07,10.32,10.32,0,0,1,.24,1.23h3.19a10,10,0,0,0-.47-2.13,8,8,0,0,0-1.62-2.82,7,7,0,0,0-2.56-1.77,9.43,9.43,0,0,0-6.62,0,7,7,0,0,0-2.55,1.72,7.53,7.53,0,0,0-1.64,2.82,9.84,9.84,0,0,0-.48,2.2h3.14A9.52,9.52,0,0,1,164.66,226Z" fill="#ed1c24"/><path d="M161.77,232.75a7.65,7.65,0,0,0,1.64,2.83,7.13,7.13,0,0,0,2.55,1.73,9.59,9.59,0,0,0,6.57,0,7,7,0,0,0,2.56-1.73,8,8,0,0,0,1.66-2.83,11.82,11.82,0,0,0,.58-3.88,15,15,0,0,0-.1-1.68H174a12.58,12.58,0,0,1,.11,1.68,7.85,7.85,0,0,1-1.31,4.94,4.77,4.77,0,0,1-7.22,0,7.89,7.89,0,0,1-1.31-4.94,12.52,12.52,0,0,1,.12-1.68h-3.14a12.81,12.81,0,0,0-.11,1.68A11.81,11.81,0,0,0,161.77,232.75Z" fill="#4e1233"/><path d="M183.86,225.28a4.87,4.87,0,0,1,4-2.45,7.5,7.5,0,0,1,1.88.2v-3a4.92,4.92,0,0,0-.71-.11l-.69,0c-1.76,0-3.25.93-4.49,2.79v-2.43h-3.07v7h3.07Z" fill="#ed1c24"/><rect x="180.79" y="227.19" width="3.08" height="10.3" fill="#4e1233"/><path d="M194.7,225a5.24,5.24,0,0,1,1.06-1.55,4.07,4.07,0,0,1,1.43-.9,5,5,0,0,1,1.69-.29,4.48,4.48,0,0,1,3.24,1.22,6.41,6.41,0,0,1,1.63,3.74h3.13a11.45,11.45,0,0,0-.47-2.13,8,8,0,0,0-1.62-2.82,7.09,7.09,0,0,0-2.56-1.77,8.8,8.8,0,0,0-3.35-.61,8.4,8.4,0,0,0-3.25.61,7.14,7.14,0,0,0-2.55,1.77,8.34,8.34,0,0,0-1.65,2.82,10.7,10.7,0,0,0-.49,2.13h3.14A8.11,8.11,0,0,1,194.7,225Z" fill="#ed1c24"/><path d="M191.44,232.71a7.61,7.61,0,0,0,1.72,2.83,7.34,7.34,0,0,0,2.66,1.75,9.37,9.37,0,0,0,3.42.6,9.81,9.81,0,0,0,2.71-.36,7.18,7.18,0,0,0,2.25-1.06,6.18,6.18,0,0,0,1.63-1.75,6.1,6.1,0,0,0,.82-2.4h-3.14a2.74,2.74,0,0,1-.43,1.38,3.27,3.27,0,0,1-1,1,4.5,4.5,0,0,1-1.34.58,5.57,5.57,0,0,1-1.52.2,5.49,5.49,0,0,1-2-.34,4.32,4.32,0,0,1-1.61-1.05,5.33,5.33,0,0,1-1.13-1.83,9.6,9.6,0,0,1-.55-2.63h13v-.74a15,15,0,0,0-.1-1.68H190.94a12.93,12.93,0,0,0-.11,1.68A11.21,11.21,0,0,0,191.44,232.71Z" fill="#4e1233"/></g></g></svg>