<svg xmlns="http://www.w3.org/2000/svg" xmlns:xlink="http://www.w3.org/1999/xlink" viewBox="0 0 16 16"><defs><linearGradient id="linear-gradient" x1="9.09" y1="3.19" x2="6.08" y2="20.63" gradientUnits="userSpaceOnUse"><stop offset="0.5" stop-color="#be202e"/><stop offset="1" stop-color="#231f20"/></linearGradient><linearGradient id="linear-gradient-2" x1="3.99" y1="5.25" x2="2.89" y2="24.13" gradientUnits="userSpaceOnUse"><stop offset="0" stop-color="#be1e2d"/><stop offset="1"/></linearGradient><linearGradient id="linear-gradient-3" x1="9.13" y1="5.55" x2="8.03" y2="24.43" xlink:href="#linear-gradient-2"/></defs><g id="Layer_2" data-name="Layer 2"><g id="Layer_2-2" data-name="Layer 2"><rect width="16" height="16" rx="8" fill="#fff"/><path d="M12.68,9.68A4.36,4.36,0,0,1,9,13.79a4.91,4.91,0,0,1-.67.05A4.33,4.33,0,0,1,7,5.37a4.39,4.39,0,0,1,1.32-.2,4.91,4.91,0,0,1,.67,0,4.38,4.38,0,0,1,3.51,3H10.61A2.66,2.66,0,0,0,9,7a2.46,2.46,0,0,0-.67-.09A2.67,2.67,0,0,0,5.66,9.5,2.62,2.62,0,0,0,7,11.77a2.58,2.58,0,0,0,1.32.35A2.93,2.93,0,0,0,9,12a2.64,2.64,0,0,0,2-2.36Z" fill="#4e1233"/><path d="M9,5.22v8.57a4.91,4.91,0,0,1-.67.05A4.39,4.39,0,0,1,7,13.64V5.37a4.39,4.39,0,0,1,1.32-.2A4.91,4.91,0,0,1,9,5.22Z" fill="url(#linear-gradient)"/><path d="M6,5.55A3.2,3.2,0,0,0,1.84,7.74l1-.12.48.84S3.71,5.59,6,5.55Z" fill="url(#linear-gradient-2)"/><path d="M8.12,4.83a2.36,2.36,0,0,0-2-1.65.93.93,0,0,0-.89.44C5,3.9,5,4.29,5.72,4.69a3,3,0,0,0,1.37.36,5.72,5.72,0,0,0,2.65-.54,3.39,3.39,0,0,1,2-.3,4,4,0,0,1,2.06.86,4.94,4.94,0,0,1,.38.36l-1.25.07,0,1.16A4.4,4.4,0,0,0,8.9,5.28,7.5,7.5,0,0,1,5,4.94a1.22,1.22,0,0,1-.62-.54,1.12,1.12,0,0,1,0-1A1.76,1.76,0,0,1,5.71,2.34,2.14,2.14,0,0,1,7.88,3.75S7.9,1.26,9.64,1A1.09,1.09,0,0,1,11,1.88a2.07,2.07,0,0,1-.54,2,2,2,0,0,1-.71.5s1.21-1.17.69-2.15S8.27,2.08,8.12,4.83Z" fill="url(#linear-gradient-3)"/></g></g></svg>