<svg xmlns="http://www.w3.org/2000/svg" xmlns:xlink="http://www.w3.org/1999/xlink" viewBox="0 0 206.98 237.89"><defs><linearGradient id="linear-gradient" x1="118.16" y1="34.21" x2="71.33" y2="305.58" gradientUnits="userSpaceOnUse"><stop offset="0.5" stop-color="#be202e"/><stop offset="1" stop-color="#231f20"/></linearGradient><linearGradient id="linear-gradient-2" x1="38.83" y1="66.28" x2="21.76" y2="359.97" gradientUnits="userSpaceOnUse"><stop offset="0" stop-color="#be1e2d"/><stop offset="1"/></linearGradient><linearGradient id="linear-gradient-3" x1="118.75" y1="70.93" x2="101.68" y2="364.62" xlink:href="#linear-gradient-2"/></defs><g id="Layer_2" data-name="Layer 2"><g id="Layer_2-2" data-name="Layer 2"><path d="M174,135.24c-1.31,32.46-25.77,59-57.49,63.87a69.11,69.11,0,0,1-31.08-2.34,67.23,67.23,0,0,1,0-128.53A68.34,68.34,0,0,1,171,112.43H141.84A41.41,41.41,0,0,0,85.46,97.2a40.57,40.57,0,0,0,0,70.59,41.56,41.56,0,0,0,31.08,4.1,40.81,40.81,0,0,0,30.53-36.65Z" fill="#4e1233"/><path d="M116.54,65.9V199.11a69.11,69.11,0,0,1-31.08-2.34V68.24a69.11,69.11,0,0,1,31.08-2.34Z" fill="url(#linear-gradient)"/><path d="M69.66,71.06S24.19,54.48,5.48,105l15.59-1.81,7.55,13S34.53,71.55,69.66,71.06Z" fill="url(#linear-gradient-2)"/><path d="M103.14,59.73s-6.32-23.16-31.68-25.6a14.4,14.4,0,0,0-13.81,6.8C55,45.38,55,51.45,65.79,57.59a43.87,43.87,0,0,0,21.29,5.55c10.68.07,28.17-1.08,41.17-8.33,9.47-5.28,21-5.67,30.6-4.62a61.65,61.65,0,0,1,32,13.3,63.83,63.83,0,0,1,5.9,5.69l-19.42,1.06-.66,18.05s-23.47-28.23-61.39-21.5c-29.75,5.28-52.83-2-61.39-5.34a18.23,18.23,0,0,1-9.56-8.32c-1.9-3.6-3-8.58-.62-14.85a26.94,26.94,0,0,1,22-17.16C75.5,20,88.8,23.12,99.36,43c0,0,.33-38.73,27.41-42.67,13.55-2,19,5.54,21.16,13.54,2.87,10.87-.62,22.37-8.36,30.52a31.32,31.32,0,0,1-11.15,7.8S147.29,34,139.25,18.7,105.49,17,103.14,59.73Z" fill="url(#linear-gradient-3)"/><path d="M20.8,217.3H17.55a5.66,5.66,0,0,0-.65-2,4.88,4.88,0,0,0-1.32-1.54,5.77,5.77,0,0,0-1.95-1,8.58,8.58,0,0,0-2.5-.35,8.06,8.06,0,0,0-3.3.65,6.81,6.81,0,0,0-2.47,1.87,8.48,8.48,0,0,0-1.55,3,15.39,15.39,0,0,0,0,8.19,8.89,8.89,0,0,0,1.56,3A6.52,6.52,0,0,0,7.82,231a8,8,0,0,0,3.24.63,7,7,0,0,0,4.6-1.38,5.61,5.61,0,0,0,1.89-3.9H20.8a8.85,8.85,0,0,1-1,3.43,8,8,0,0,1-2.08,2.5,9.29,9.29,0,0,1-3,1.53,12.56,12.56,0,0,1-3.64.52,11.71,11.71,0,0,1-4.6-.87A9.69,9.69,0,0,1,3,231a11.38,11.38,0,0,1-2.23-3.88,17.13,17.13,0,0,1,0-10.22A11.28,11.28,0,0,1,3,213a9.79,9.79,0,0,1,3.5-2.46,11.71,11.71,0,0,1,4.6-.86,11.51,11.51,0,0,1,3.61.55,9.73,9.73,0,0,1,3,1.54,8.34,8.34,0,0,1,2.11,2.4A7.94,7.94,0,0,1,20.8,217.3Z" fill="#4e1233"/><path d="M33.73,219.48a7.53,7.53,0,0,0-1.89-.2,4.89,4.89,0,0,0-4,2.45v12.21H24.77V216.67h3.07v2.44c1.24-1.86,2.73-2.8,4.49-2.8.23,0,.46,0,.68,0a4.78,4.78,0,0,1,.72.1Z" fill="#4e1233"/><path d="M43.22,234.35a9.22,9.22,0,0,1-3.43-.61A7.39,7.39,0,0,1,37.13,232a7.72,7.72,0,0,1-1.71-2.83,12.36,12.36,0,0,1,0-7.64,8.13,8.13,0,0,1,1.65-2.83,7,7,0,0,1,2.55-1.76,8.37,8.37,0,0,1,3.25-.62,8.8,8.8,0,0,1,3.35.62,6.83,6.83,0,0,1,2.55,1.76,7.94,7.94,0,0,1,1.63,2.83,11.72,11.72,0,0,1,.57,3.8v.74H38a9.67,9.67,0,0,0,.55,2.64,5.37,5.37,0,0,0,1.13,1.82,4.39,4.39,0,0,0,1.61,1.06,5.72,5.72,0,0,0,2,.33,6,6,0,0,0,1.52-.19,4.51,4.51,0,0,0,1.34-.59,3.39,3.39,0,0,0,1-1,2.71,2.71,0,0,0,.43-1.37h3.14a6.1,6.1,0,0,1-.82,2.4,6,6,0,0,1-1.63,1.74A7.31,7.31,0,0,1,45.93,234,9.81,9.81,0,0,1,43.22,234.35Zm4.51-10.71a6.41,6.41,0,0,0-1.63-3.74,4.48,4.48,0,0,0-3.24-1.22,5,5,0,0,0-1.69.29,4,4,0,0,0-1.43.91,5.06,5.06,0,0,0-1.06,1.54,8.21,8.21,0,0,0-.62,2.22Z" fill="#4e1233"/><path d="M65.35,232.17a8.43,8.43,0,0,1-6,2.18A7.38,7.38,0,0,1,57,234a5.67,5.67,0,0,1-1.88-1,4.39,4.39,0,0,1-1.23-1.57,4.69,4.69,0,0,1-.44-2q0-6.06,10.44-6.06h1.5a17.68,17.68,0,0,0-.1-2.07,3.08,3.08,0,0,0-.51-1.44,2.34,2.34,0,0,0-1.23-.84,7.62,7.62,0,0,0-2.28-.27c-2.75,0-4.16,1-4.26,2.94h-3q.38-5.31,7.45-5.31a14.53,14.53,0,0,1,2.94.28,5.21,5.21,0,0,1,2.21,1,4.29,4.29,0,0,1,1.38,2,9.15,9.15,0,0,1,.47,3.23v11.16h-3Zm0-2.77v-3.83H63.27q-6.68,0-6.67,3.66a2.3,2.3,0,0,0,.95,2,4.65,4.65,0,0,0,2.66.66,6.71,6.71,0,0,0,1.48-.16,6.5,6.5,0,0,0,1.4-.5,7.06,7.06,0,0,0,1.25-.78A4.67,4.67,0,0,0,65.35,229.4Z" fill="#4e1233"/><path d="M79.65,234a6.17,6.17,0,0,1-1.06.17c-.36,0-.74,0-1.15,0a5.87,5.87,0,0,1-2.26-.35A2.56,2.56,0,0,1,74,232.76a3.81,3.81,0,0,1-.49-1.66c-.06-.65-.09-1.39-.09-2.21v-9.78H71.25v-2.44h2.14v-4.25h3v4.25h2.81v2.44H76.43V229a7.75,7.75,0,0,0,.11,1.43,2.08,2.08,0,0,0,.34.83,1,1,0,0,0,.53.38,2.53,2.53,0,0,0,.7.09c.28,0,.53,0,.78,0a6.77,6.77,0,0,0,.76-.08Z" fill="#4e1233"/><path d="M85.27,213.43H82.19v-3.3h3.08Zm0,20.51H82.19V216.67h3.08Z" fill="#4e1233"/><path d="M103.71,216.67l-6.53,17.27H94.45L88,216.67h3.31l4.57,13.5,4.57-13.5Z" fill="#4e1233"/><path d="M113.77,234.35a9.22,9.22,0,0,1-3.43-.61,7.3,7.3,0,0,1-2.66-1.75,7.88,7.88,0,0,1-1.72-2.83,11.38,11.38,0,0,1-.6-3.84,11.18,11.18,0,0,1,.6-3.8,8.13,8.13,0,0,1,1.65-2.83,7,7,0,0,1,2.54-1.76,8.45,8.45,0,0,1,3.26-.62,8.72,8.72,0,0,1,3.34.62,6.78,6.78,0,0,1,2.56,1.76,8.09,8.09,0,0,1,1.63,2.83,11.72,11.72,0,0,1,.57,3.8v.74h-13a9.66,9.66,0,0,0,.56,2.64,5.37,5.37,0,0,0,1.13,1.82,4.39,4.39,0,0,0,1.61,1.06,5.72,5.72,0,0,0,2,.33,6,6,0,0,0,1.52-.19,4.63,4.63,0,0,0,1.34-.59,3.39,3.39,0,0,0,1-1,2.71,2.71,0,0,0,.43-1.37h3.14a6.26,6.26,0,0,1-.82,2.4,6,6,0,0,1-1.63,1.74,7.31,7.31,0,0,1-2.25,1.07A9.86,9.86,0,0,1,113.77,234.35Zm4.51-10.71a6.35,6.35,0,0,0-1.64-3.74,4.44,4.44,0,0,0-3.23-1.22,5,5,0,0,0-1.69.29,4,4,0,0,0-1.43.91,5.06,5.06,0,0,0-1.06,1.54,7.87,7.87,0,0,0-.62,2.22Z" fill="#4e1233"/><path d="M140.23,237.89a14.91,14.91,0,0,1-4.46-.6,8.94,8.94,0,0,1-3.15-1.69,6.73,6.73,0,0,1-1.88-2.56,8.79,8.79,0,0,1-.68-3.23h3a5.49,5.49,0,0,0,.68,2.34,5,5,0,0,0,1.51,1.62,6.59,6.59,0,0,0,2.17.95,10.61,10.61,0,0,0,2.64.32,9.76,9.76,0,0,0,2.37-.27,6.06,6.06,0,0,0,1.86-.78,3.92,3.92,0,0,0,1.22-1.28A3.35,3.35,0,0,0,146,231a3.23,3.23,0,0,0-.4-1.67,3.44,3.44,0,0,0-1.27-1.2,10.05,10.05,0,0,0-2.3-.92c-1-.28-2.12-.56-3.49-.85a19.83,19.83,0,0,1-3.55-1A8.81,8.81,0,0,1,132.6,224a4.79,4.79,0,0,1-1.31-1.8,6.37,6.37,0,0,1-.4-2.3,5.92,5.92,0,0,1,.6-2.65,6,6,0,0,1,1.7-2.1,8.34,8.34,0,0,1,2.68-1.36,11.6,11.6,0,0,1,3.5-.5,13.08,13.08,0,0,1,3.64.48,8.42,8.42,0,0,1,2.85,1.39,6.67,6.67,0,0,1,1.87,2.25,6.75,6.75,0,0,1,.73,3h-3.08q-.44-4.36-5.87-4.36a7.15,7.15,0,0,0-4.14,1,3.05,3.05,0,0,0-1.43,2.62,3.39,3.39,0,0,0,.23,1.3,2.27,2.27,0,0,0,.86.95,6.57,6.57,0,0,0,1.69.77c.71.23,1.62.46,2.73.7s2.05.49,2.88.72,1.56.44,2.19.65a8.38,8.38,0,0,1,1.67.83,6.62,6.62,0,0,1,1.45,1.25,6.05,6.05,0,0,1,1,1.72,6.14,6.14,0,0,1,.38,2.19,6.23,6.23,0,0,1-.65,2.86,6.68,6.68,0,0,1-1.82,2.25,8.85,8.85,0,0,1-2.79,1.49A11.26,11.26,0,0,1,140.23,237.89Z" fill="#ed1c24"/><path d="M159.71,237.5a6.33,6.33,0,0,1-1.06.17c-.36,0-.75,0-1.15,0a5.63,5.63,0,0,1-2.26-.36,2.49,2.49,0,0,1-1.21-1,4,4,0,0,1-.5-1.66c-.05-.65-.08-1.39-.08-2.22v-9.78h-2.14v-2.43h2.14V216h3v4.25h2.81v2.43h-2.81v9.92a7.79,7.79,0,0,0,.11,1.44,1.94,1.94,0,0,0,.34.83,1.08,1.08,0,0,0,.53.38,2.54,2.54,0,0,0,.7.08c.27,0,.53,0,.78,0a7.12,7.12,0,0,0,.76-.09Z" fill="#ed1c24"/><path d="M169.24,219.86a8.79,8.79,0,0,1,3.34.61,7,7,0,0,1,2.56,1.77,8,8,0,0,1,1.62,2.82,13.14,13.14,0,0,1,0,7.69,8,8,0,0,1-1.66,2.83,7,7,0,0,1-2.56,1.73,9.59,9.59,0,0,1-6.57,0,7.13,7.13,0,0,1-2.55-1.73,7.65,7.65,0,0,1-1.64-2.83,13.05,13.05,0,0,1,0-7.76,7.53,7.53,0,0,1,1.64-2.82,7,7,0,0,1,2.55-1.72A8.86,8.86,0,0,1,169.24,219.86Zm0,15.6a4.36,4.36,0,0,0,3.6-1.65,7.85,7.85,0,0,0,1.31-4.94,10.94,10.94,0,0,0-.35-2.91,5.89,5.89,0,0,0-1-2.07,4.06,4.06,0,0,0-1.56-1.24,4.7,4.7,0,0,0-2-.42,4.56,4.56,0,0,0-2,.43,4.26,4.26,0,0,0-1.56,1.28,6.17,6.17,0,0,0-1,2.09,10.61,10.61,0,0,0-.35,2.84,7.89,7.89,0,0,0,1.31,4.94A4.36,4.36,0,0,0,169.24,235.46Z" fill="#ed1c24"/><path d="M189.75,223a7.5,7.5,0,0,0-1.88-.2,4.87,4.87,0,0,0-4,2.45v12.21h-3.07V220.22h3.07v2.43c1.24-1.86,2.73-2.79,4.49-2.79l.69,0a4.92,4.92,0,0,1,.71.11Z" fill="#ed1c24"/><path d="M199.24,237.89a9.37,9.37,0,0,1-3.42-.6,7.34,7.34,0,0,1-2.66-1.75,7.61,7.61,0,0,1-1.72-2.83,12.39,12.39,0,0,1,0-7.65,8.34,8.34,0,0,1,1.65-2.82,7.14,7.14,0,0,1,2.55-1.77,8.4,8.4,0,0,1,3.25-.61,8.8,8.8,0,0,1,3.35.61,7.09,7.09,0,0,1,2.56,1.77,8,8,0,0,1,1.62,2.82,11.83,11.83,0,0,1,.57,3.81v.74H194a9.6,9.6,0,0,0,.55,2.63,5.33,5.33,0,0,0,1.13,1.83,4.32,4.32,0,0,0,1.61,1.05,5.49,5.49,0,0,0,2,.34,5.57,5.57,0,0,0,1.52-.2,4.5,4.5,0,0,0,1.34-.58,3.27,3.27,0,0,0,1-1,2.74,2.74,0,0,0,.43-1.38h3.14a6.1,6.1,0,0,1-.82,2.4,6.18,6.18,0,0,1-1.63,1.75,7.18,7.18,0,0,1-2.25,1.06A9.81,9.81,0,0,1,199.24,237.89Zm4.51-10.7a6.41,6.41,0,0,0-1.63-3.74,4.48,4.48,0,0,0-3.24-1.22,5,5,0,0,0-1.69.29,4.07,4.07,0,0,0-1.43.9A5.24,5.24,0,0,0,194.7,225a8.11,8.11,0,0,0-.62,2.22Z" fill="#ed1c24"/></g></g></svg>